External Loads File
version=1
nRows=38
nColumns=13
Range=5.000000e-03-10 seconds
endheader
time 	forceRightX 	forceRightY 	forceRightZ 	pointRightX 	pointRightY 	pointRightZ 	forceLeftX 	forceLeftY 	forceLeftZ 	pointLeftX 	pointLeftY 	pointLeftZ 		
7.505000 -128.673403 397.092904 -0.000000 0.389007 0.421097 -0.165134 47.607006 -4.775876 -0.000000 0.125874 0.211735 -0.413567
7.510000 -147.256610 462.778143 -0.000000 0.392609 0.411875 -0.165303 47.568040 -8.267566 -0.000000 0.121574 0.220858 -0.413436
7.515000 -165.021556 522.274647 -0.000000 0.395909 0.402192 -0.165493 48.233909 -9.784205 -0.000000 0.117677 0.230273 -0.413431
7.520000 -180.901679 573.652778 -0.000000 0.399069 0.392061 -0.165688 49.439433 -9.486549 -0.000000 0.114419 0.239966 -0.413494
7.525000 -194.457837 615.474280 -0.000000 0.401836 0.381773 -0.165899 51.141937 -7.539758 -0.000000 0.111705 0.249904 -0.413573
7.530000 -205.117697 647.061774 -0.000000 0.404169 0.371321 -0.165932 53.370686 -4.221055 -0.000000 0.109566 0.259977 -0.413564
7.535000 -211.768379 668.666972 -0.000000 0.406350 0.360617 -0.166233 56.213655 0.067535 -0.000000 0.107990 0.270300 -0.413508
7.540000 -215.277096 680.661098 -0.000000 0.408031 0.349881 -0.166239 59.747852 5.005655 -0.000000 0.106912 0.280749 -0.413522
7.545000 -215.837929 684.275799 -0.000000 0.409200 0.339011 -0.166186 63.950629 10.148922 -0.000000 0.106385 0.291266 -0.413550
7.550000 -213.864527 681.164717 -0.000000 0.409960 0.327995 -0.166075 68.727442 15.059401 -0.000000 0.106377 0.301835 -0.413619
7.555000 -209.867026 673.233555 -0.000000 0.410276 0.316924 -0.166033 73.919145 19.349059 -0.000000 0.106950 0.312545 -0.413703
7.560000 -204.665969 662.295161 -0.000000 0.410133 0.305955 -0.165979 79.257215 22.747951 -0.000000 0.108052 0.323336 -0.413759
7.565000 -198.861732 649.997805 -0.000000 0.409313 0.295140 -0.166006 84.398941 25.092863 -0.000000 0.109695 0.333994 -0.413819
7.570000 -191.066892 638.289857 -0.000000 0.407622 0.284057 -0.166171 89.088101 26.064294 -0.000000 0.111953 0.344589 -0.413954
7.575000 -182.465118 628.052463 -0.000000 0.405255 0.273472 -0.166265 92.997994 25.733538 -0.000000 0.114868 0.355170 -0.414061
7.580000 -172.655252 620.356786 -0.000000 0.402224 0.263126 -0.166155 95.873338 24.029747 -0.000000 0.118336 0.365499 -0.414049
7.585000 -160.687485 616.072695 -0.000000 0.398404 0.252875 -0.165976 97.520473 20.853495 -0.000000 0.122294 0.375672 -0.414431
7.590000 -146.510266 615.447208 -0.000000 0.393749 0.243052 -0.165777 97.760367 16.287277 -0.000000 0.127054 0.385627 -0.414187
7.595000 -130.190067 618.352246 -0.000000 0.388368 0.233632 -0.165574 96.463647 10.460585 -0.000000 0.132299 0.395251 -0.414045
7.600000 -110.864613 624.509460 -0.000000 0.382229 0.224457 -0.165264 93.600073 3.335959 -0.000000 0.138146 0.404597 -0.413879
7.605000 -89.447909 632.987552 -0.000000 0.375401 0.215627 -0.164981 89.195670 -4.935073 -0.000000 0.144193 0.413499 -0.413191
7.610000 -62.841251 643.140838 -0.000000 0.367871 0.207329 -0.164633 83.239184 -14.831099 -0.000000 0.152226 0.422376 -0.413657
7.615000 -36.745312 653.065942 -0.000000 0.359913 0.199309 -0.164253 75.822173 -25.654678 -0.000000 0.159365 0.430476 -0.413531
7.620000 -8.166286 661.759128 -0.000000 0.351477 0.191785 -0.163845 66.884129 -37.842119 -0.000000 0.167563 0.438231 -0.413674
7.625000 20.314122 667.799652 -0.000000 0.342609 0.184975 -0.163378 56.542553 -51.059410 -0.000000 0.176028 0.445322 -0.413689
7.630000 49.048975 670.070489 -0.000000 0.333390 0.178565 -0.163199 44.788462 -65.169115 -0.000000 0.185070 0.451866 -0.413547
7.635000 76.717899 667.785226 -0.000000 0.323944 0.172761 -0.162928 31.755003 -79.761632 -0.000000 0.194408 0.458058 -0.413492
7.640000 103.118265 660.474504 -0.000000 0.314212 0.167485 -0.162576 17.557528 -94.416200 -0.000000 0.204250 0.463526 -0.413436
7.645000 126.353821 648.345213 -0.000000 0.304465 0.163157 -0.162545 2.721413 -108.603954 -0.000000 0.214265 0.467834 -0.413342
7.650000 147.733349 631.420902 -0.000000 0.294553 0.159243 -0.162663 -12.521433 -121.847181 -0.000000 0.224424 0.472456 -0.413103
7.655000 166.267480 610.265308 -0.000000 0.284441 0.156126 -0.162452 -27.502008 -133.641416 -0.000000 0.234668 0.475502 -0.413166
7.660000 181.936166 585.288931 -0.000000 0.274381 0.153568 -0.162571 -41.697640 -143.510867 -0.000000 0.244840 0.478278 -0.413171
7.665000 195.115197 556.754640 -0.000000 0.264190 0.151649 -0.162597 -54.726965 -150.908075 -0.000000 0.254908 0.480415 -0.413399
7.670000 206.071491 524.906828 -0.000000 0.253920 0.150266 -0.162374 -66.260547 -155.200949 -0.000000 0.264981 0.481787 -0.413606
7.675000 214.835175 490.037546 -0.000000 0.243590 0.149566 -0.162040 -75.993130 -155.765385 -0.000000 0.275060 0.482468 -0.413815
7.680000 220.745533 452.767919 -0.000000 0.233390 0.149435 -0.161818 -83.527725 -152.216639 -0.000000 0.284919 0.482630 -0.413937
7.685000 223.717351 413.549926 -0.000000 0.223329 0.150138 -0.161748 -88.845780 -144.251702 -0.000000 0.294436 0.482083 -0.414004
7.690000 223.106610 373.210368 -0.000000 0.213672 0.151644 -0.161815 -91.978924 -131.749680 -0.000000 0.303296 0.480801 -0.413896
